# xmcd
#
# Track frame offsets: 
#        150
#        13035
#        24431
#        34443
#        42228
#        50583
#        62633
#        72910
#        83751
#        93548
#        102167
#        111776
#        124690
#        134951
#        145255
#        155485
#        164079
#
# Disc length: 2325 seconds
#
# Revision: 0
# Processed by: cddbd v1.5.2PL0 Copyright (c) Steve Scherf et al.
# Submitted via: ExactAudioCopy v0.99pb5
#
DISCID=f5091311
DTITLE=Johnny Cash - My Best To You [Disc 2]
DYEAR=1900
DGENRE=Country
TTITLE0=Folsom Prison Blues
TTITLE1=Big River
TTITLE2=Ballad of a Teenage Queen
TTITLE3=Come in Stranger
TTITLE4=Guess Things Happen That Way
TTITLE5=You're the Nearest Thing to Heaven
TTITLE6=The Ways of a Woman in Love
TTITLE7=I Just Thought You'd Like to Know
TTITLE8=It's Just About Time
TTITLE9=I Forgot to Remember to Forget
TTITLE10=What Do I Care
TTITLE11=Suppertime
TTITLE12=The Troubador
TTITLE13=Run Softly Blue River
TTITLE14=All Over Again
TTITLE15=That's All Over
TTITLE16=Frankie's Man, Johnny
EXTD=
EXTT0=
EXTT1=
EXTT2=
EXTT3=
EXTT4=
EXTT5=
EXTT6=
EXTT7=
EXTT8=
EXTT9=
EXTT10=
EXTT11=
EXTT12=
EXTT13=
EXTT14=
EXTT15=
EXTT16=
PLAYORDER=
